<?xml version="1.0" encoding="UTF-8" standalone="no"?>
<svg width="1405px" height="1618px" viewBox="0 0 1405 1618" version="1.1" xmlns="http://www.w3.org/2000/svg" xmlns:xlink="http://www.w3.org/1999/xlink">
    <!-- Generator: Sketch 47.1 (45422) - http://www.bohemiancoding.com/sketch -->
    <title>Logo_HitboxMakers_background</title>
    <desc>Created with Sketch.</desc>
    <defs></defs>
    <g id="Page-1" stroke="none" stroke-width="1" fill="none" fill-rule="evenodd" opacity="0.04209422">
        <g id="accueil" transform="translate(-90.000000, -117.000000)" fill-rule="nonzero">
            <g id="Logo_HitboxMakers_background" transform="translate(90.000000, 117.000000)">
                <g id="Calque_2">
                    <g id="Page-1_1_">
                        <g id="BigLogoBack_1_">
                            <g id="Group">
                                <path d="M8.46817488,398.78852 C232.26994,268.43373 456.071705,138.078941 679.470223,7.31806199 C696.406573,-2.42809049 708.907212,-1.61591112 725.440315,8.13024136 C944.403123,136.048493 1164.17242,263.560654 1383.13523,391.072816 C1390.79691,395.539802 1400.87807,398.38243 1402.49106,409.752941 C1384.74822,438.991399 1354.50474,453.204538 1326.27749,468.229856 C1292.40479,486.503892 1279.5009,512.087542 1279.5009,549.853883 C1280.30739,728.533345 1280.30739,907.212807 1279.5009,1085.89227 C1279.5009,1104.57239 1285.95284,1126.90733 1262.9678,1139.09002 C1258.93533,1139.49611 1255.70936,1138.27784 1253.28988,1135.43521 C1243.20872,1112.69419 1242.80548,1088.7349 1242.80548,1064.36952 C1242.80548,890.56313 1242.40223,717.162834 1243.20872,543.356448 C1243.20872,509.244914 1231.91782,485.691713 1201.67434,468.635946 C1044.40824,378.890125 888.755116,286.301677 731.489011,196.555856 C722.61759,191.27669 714.149415,184.779255 703.261762,183.560986 C691.970862,181.936627 683.502687,187.621883 674.228019,193.307138 C508.49374,290.362573 342.356213,386.605829 176.218687,483.255175 C164.524541,490.158699 152.427148,496.656134 137.910277,494.625686 C94.359663,479.194278 56.4544992,452.392358 18.146089,427.214798 C10.484407,421.935632 0.806492846,412.189479 8.46817488,398.78852 Z" id="Shape" fill="#636363"></path>
                                <path d="M8.46817488,398.78852 C33.0662067,427.214798 68.9551383,438.179219 98.7953737,458.483704 C112.505752,467.823766 128.232363,474.321201 139.926509,486.503892 C160.492076,500.310941 154.846626,522.239784 154.846626,541.326 C155.653119,701.325336 154.846626,861.324673 155.249873,1021.32401 C155.249873,1053.81118 152.023902,1086.70445 158.475844,1118.78553 C160.895323,1131.7804 171.37973,1136.24739 181.46089,1142.33874 C349.614649,1241.42462 518.978147,1337.66787 687.131905,1437.15985 C700.03579,1444.87555 712.53643,1452.18517 717.778633,1467.61657 C723.424083,1507.41336 720.601358,1547.61624 720.198112,1587.41303 C720.198112,1602.03226 712.939676,1613.40277 705.68124,1625.17937 C690.761123,1626.39764 680.276716,1616.2454 668.985816,1609.34188 C456.071705,1485.89061 243.56084,1362.03326 30.2434817,1238.98808 C8.46817488,1226.3993 0,1212.18616 0,1186.60251 C0.806492846,936.045175 0.403246423,685.487838 0.806492846,434.930502 C0.806492846,421.935632 -3.22597138,408.534672 8.46817488,398.78852 Z" id="Shape" fill="#818181"></path>
                                <path d="M705.68124,1624.36719 C705.68124,1569.95118 705.68124,1515.12907 705.68124,1460.71305 C703.261762,1438.37812 721.811097,1432.69286 735.521476,1424.57107 C843.591517,1360.4089 952.871298,1298.27718 1061.34459,1234.92718 C1109.33091,1206.907 1157.72048,1179.69899 1204.90031,1150.86662 C1221.03017,1141.12047 1238.36977,1128.1256 1260.14507,1137.87175 C1267.40351,1124.0647 1265.38728,1109.03938 1265.38728,1094.42015 C1265.38728,905.182359 1266.19377,715.944565 1264.98403,526.300681 C1264.98403,495.843955 1273.85545,475.94556 1301.27621,463.76287 C1336.76189,448.331462 1365.39239,419.905183 1403.29755,409.346852 C1403.7008,593.711569 1404.10405,778.482377 1404.50729,962.847094 C1404.50729,1040.00413 1404.10405,1116.75509 1404.91054,1193.91213 C1404.91054,1209.74962 1402.49106,1221.52622 1386.76445,1230.4602 C1158.93022,1361.62717 932.30573,1493.20022 705.68124,1624.36719 Z" id="Shape" fill="#4E4E4E"></path>
                                <path d="M699.229298,320.8193 C835.123342,399.194609 971.017387,477.976009 1107.31468,555.945228 C1124.65427,565.691381 1125.05752,579.49843 1125.05752,595.742018 C1125.05752,748.43174 1125.46077,901.121462 1125.46077,1053.81118 C1123.84778,1054.21727 1121.83155,1055.02945 1120.21856,1055.43554 C1099.653,1044.87721 1105.29845,1024.57273 1105.29845,1007.92305 C1104.49195,897.466655 1104.8952,787.01026 1104.8952,676.553865 C1104.8952,670.05643 1104.8952,663.965085 1104.8952,657.46765 C1104.49195,609.142977 1094.00755,603.051632 1051.26342,627.823103 C1031.50435,639.193614 1011.74528,651.376305 989.566722,658.685919 C975.049851,662.340726 963.355705,655.843291 951.258312,648.939767 C875.447985,607.112529 802.460382,561.630484 726.650054,519.803246 C717.778633,514.93017 710.116951,506.808376 698.422805,508.838825 C626.241695,547.823435 555.673571,590.056762 484.702201,631.47791 C466.959358,641.630152 450.023008,654.625022 428.247701,656.249381 C404.456162,658.685919 386.71332,643.254511 368.163984,633.102269 C347.19517,621.731758 326.226356,609.955157 305.660789,596.960287 C294.773135,590.056762 285.095221,582.341058 284.288728,567.721829 C342.75946,524.676323 407.682134,493.001327 469.378836,456.047166 C545.59241,410.565121 622.612477,365.895255 699.229298,320.8193 Z" id="Shape" fill="#636363"></path>
                                <path d="M284.288728,567.721829 C322.193892,588.838493 360.099056,610.361246 397.600973,631.884 C407.682134,637.569255 417.360048,643.660601 429.054194,644.06669 C439.941848,657.46765 437.522369,674.117327 437.925615,689.548735 C438.328862,765.081417 437.925615,841.020188 438.328862,916.55287 C438.328862,931.172099 437.119123,946.197417 442.361326,960.004467 C445.184051,971.781067 456.071705,975.029785 464.943126,979.902861 C544.785918,1024.57273 622.209231,1073.70958 703.261762,1116.349 C712.133183,1120.81598 719.391619,1126.09515 720.601358,1136.65348 C712.53643,1174.82591 716.165647,1213.40443 714.955908,1251.57686 C714.552662,1268.22654 714.149415,1285.28231 698.826051,1296.65282 C613.741056,1254.41949 534.301511,1202.44001 451.232747,1156.14579 C395.584741,1124.87688 340.743228,1092.79579 285.498468,1061.1208 C280.256264,1047.31375 279.046525,1032.69452 279.046525,1017.6692 C279.046525,879.192619 279.046525,740.309946 279.046525,601.833363 C278.643278,590.056762 278.240032,578.686251 284.288728,567.721829 Z" id="Shape" fill="#818181"></path>
                                <path d="M698.422805,1296.65282 C698.826051,1254.82558 699.632544,1213.40443 699.632544,1171.57719 C699.632544,1156.55187 700.03579,1142.33874 711.729937,1130.96822 C708.100719,1111.47592 722.61759,1106.19675 735.118229,1098.48105 C800.44415,1059.09035 867.383056,1022.13619 932.708977,983.151579 C945.209616,975.841964 958.113501,968.53235 964.96869,954.319211 C967.791415,869.446466 964.96869,784.573722 966.581676,699.700977 C966.984923,682.645211 962.549212,663.152906 981.098547,650.970215 C1019.00371,628.635282 1056.50563,605.48817 1094.81404,583.965417 C1120.62181,569.346188 1119.81532,589.650672 1119.81532,605.89426 C1119.81532,734.624691 1119.81532,862.949031 1119.81532,991.679462 C1119.81532,1012.79613 1120.21856,1033.91279 1120.21856,1055.02945 C1083.92639,1083.45573 1042.392,1103.35413 1002.87385,1126.50124 C912.143409,1180.51117 820.606471,1233.30283 729.069533,1286.09448 C719.794865,1291.37365 711.32669,1301.52589 698.422805,1296.65282 Z" id="Shape" fill="#4F4F4F"></path>
                                <path d="M842.381778,896.654475 C806.0896,916.95896 769.797422,937.263444 733.505244,957.567928 C722.61759,963.659274 713.342922,972.593247 699.632544,972.187157 C687.938398,958.786197 682.696194,942.9487 683.905934,925.892933 C686.325412,887.314413 675.437759,847.923713 692.374108,810.969552 C721.811097,774.01539 764.958465,757.365713 804.073368,734.218601 C815.364267,727.721166 830.284385,726.096807 843.591517,733.406421 C843.188271,787.41635 842.785024,842.238457 842.381778,896.654475 Z" id="Shape" fill="#4F4F4F"></path>
                                <path d="M624.628709,687.518287 C607.289113,672.899058 570.190442,666.401623 571.400182,649.751946 C573.013167,626.604834 607.69236,620.919578 628.661174,608.330798 C653.662452,593.30548 677.050744,575.437533 705.68124,567.31574 C748.425361,592.4933 791.572729,617.670861 834.316849,643.254511 C835.929835,644.06669 836.333081,646.503229 838.75256,650.564125 C817.783746,663.558995 797.218178,676.553865 776.249364,689.548735 C764.151972,722.442 736.731215,733.406421 706.084487,739.497767 C671.808541,733.406421 639.548827,724.066359 624.628709,687.518287 Z" id="Shape" fill="#636363"></path>
                                <path d="M706.084487,727.721166 C729.472779,715.132386 752.861072,702.137516 776.249364,689.548735 C797.621425,705.792323 823.832442,713.914116 843.591517,733.000332 C793.588961,750.868278 752.054579,784.167632 705.68124,808.533013 C701.648776,810.563462 698.019558,809.751283 695.196833,806.502565 C677.857237,764.675327 680.679962,744.776933 706.084487,727.721166 Z" id="Shape" fill="#BCBCBC"></path>
                                <path d="M700.03579,808.126924 C702.052023,808.126924 703.665008,808.533013 705.68124,808.533013 C693.583848,862.542942 702.455269,917.365049 700.03579,971.781067 C651.64622,947.821776 605.272881,920.613767 560.109282,890.96922 C560.512528,838.177561 560.915775,785.385901 561.319021,732.594242 C568.980703,726.096807 577.852124,728.127256 584.707313,730.969883 C627.451434,750.462188 672.211787,766.299686 700.03579,808.126924 Z" id="Shape" fill="#818181"></path>
                                <path d="M700.03579,808.126924 C653.662452,782.949363 607.69236,758.177892 561.319021,733.000332 C579.868356,714.320206 607.289113,708.228861 624.628709,687.518287 C652.452713,698.888798 675.841005,720.411551 705.68124,727.721166 C693.583848,753.710906 700.439037,781.325004 700.03579,808.126924 Z" id="Shape" fill="#959595"></path>
                            </g>
                        </g>
                    </g>
                </g>
            </g>
        </g>
    </g>
</svg>